<?xml version="1.0" encoding="utf-8"?>
<!-- Generator: Adobe Illustrator 23.1.0, SVG Export Plug-In . SVG Version: 6.00 Build 0)  -->
<svg version="1.2" baseProfile="tiny" id="Layer_1" xmlns="http://www.w3.org/2000/svg" xmlns:xlink="http://www.w3.org/1999/xlink"
	 x="0px" y="0px" viewBox="0 0 945.5 1100" xml:space="preserve">
<g>
	<g>
		<g>
			<path fill="#B3B8BD" d="M567.8,985.6c0,27.8-11.3,52.9-29.5,71.1c-18.2,18.2-43.3,29.5-71.1,29.5s-52.9-11.3-71.1-29.5
				c-18.2-18.2-29.5-43.3-29.5-71.1s11.3-52.9,29.5-71.1c18.2-18.2,43.3-29.5,71.1-29.5s52.9,11.3,71.1,29.5
				C556.5,932.7,567.8,957.8,567.8,985.6z"/>
			<path fill="#2E4C59" d="M467.2,1100c-31.5,0-60.1-12.8-80.9-33.5c-20.7-20.7-33.5-49.3-33.5-80.9c0-31.5,12.8-60.1,33.5-80.9
				c20.7-20.7,49.3-33.6,80.9-33.6c31.5,0,60.1,12.8,80.9,33.6c20.7,20.7,33.6,49.3,33.6,80.9c0,31.5-12.8,60.1-33.6,80.9
				C527.4,1087.2,498.8,1100,467.2,1100z M467.2,898.9c-23.9,0-45.6,9.7-61.3,25.4s-25.4,37.4-25.4,61.3s9.7,45.6,25.4,61.3
				s37.4,25.4,61.3,25.4s45.6-9.7,61.3-25.4c15.7-15.7,25.4-37.4,25.4-61.3c0-23.9-9.7-45.6-25.4-61.3
				C512.8,908.6,491.1,898.9,467.2,898.9z"/>
		</g>
		<g>
			<path fill="#FDE9A4" d="M738.2,483c0-78.3-33.2-148.8-86.3-198.3s-126-77.9-205.6-71.9c-67.3,5-127.9,35.1-172.6,80.7
				s-73.5,106.8-77.2,174.2c-2.3,41.2,4.7,80.5,18.9,116.1c14.3,35.6,35.9,67.4,62.9,93.7c24,23.3,42.5,51.3,54.9,81.7
				s18.8,63.5,18.8,97v2.8v2.8h115.1h115.1V859v-2.8c0-34.3,7.2-67.6,20.4-98.5s32.5-59.2,56.6-83.5c24.4-24.5,44.1-53.6,57.8-86
				C730.7,555.9,738.2,520.4,738.2,483z"/>
			<path fill="#2E4C59" d="M582.3,875.6H467.2H352.2c-3.8,0-7.3-1.5-9.8-4.1s-4.1-6-4.1-9.8V859v-2.8c0-32.2-6.3-63.7-18.2-92.5
				s-29.2-54.9-51.3-76.3c-29.6-28.7-52.3-63.2-66.9-100.8s-21.4-78.4-19.1-119.7c3.9-71.1,34.1-135.4,81-183.3
				s110.6-79.3,181.5-84.6c40.2-3,79.4,2.2,115.9,14.9c36.5,12.7,70.3,33,99.7,60.3c29,26.9,51.7,59.3,67.3,95s23.8,74.4,23.8,113.9
				c0,37.9-7.4,74.7-21.4,108.8c-14.1,34-34.8,65.3-61.6,92.2c-23.5,23.6-41.8,50.7-54.1,79.9c-12.4,29.2-18.8,60.4-18.8,92.3v2.8
				v2.8c0,3.8-1.5,7.3-4.1,9.8S586.1,875.6,582.3,875.6z M365.9,847.9h101.3h101.3c1.1-34.1,8.7-67.3,22.4-98.4
				c13.7-31,33.4-59.9,58.5-85.1c24.2-24.3,42.9-52.5,55.6-83.2c12.7-30.7,19.3-63.9,19.3-98.2c0-35.7-7.5-70.7-21.5-102.8
				s-34.6-61.5-60.8-85.7c-26.5-24.6-57-42.9-90-54.4c-33-11.5-68.4-16.2-104.7-13.4c-64,4.8-121.5,33.2-163.8,76.4
				S214,404.3,210.4,468.5c-2.1,37.3,4,74.1,17.2,108.1c13.2,34,33.7,65.1,60.4,91c23.8,23.1,42.7,51,55.9,81.7
				C357.3,780,364.8,813.5,365.9,847.9z"/>
		</g>
		<g>
			<path fill="#B3B8BD" d="M579.6,894.5H467.2H354.9c-7.1,0-13.5-2.9-18.2-7.5s-7.5-11.1-7.5-18.2v-2.1v-2.1
				c0-7.1,2.9-13.5,7.5-18.2s11.1-7.5,18.2-7.5h112.3h112.3c7.1,0,13.5,2.9,18.2,7.5s7.5,11.1,7.5,18.2v2.1v2.1
				c0,7.1-2.9,13.5-7.5,18.2S586.7,894.5,579.6,894.5z"/>
			<path fill="#2E4C59" d="M577.4,908.4H467.2H357c-11.5,0-21.9-4.7-29.5-12.2s-12.2-18-12.2-29.5s4.7-21.9,12.2-29.5
				s18-12.2,29.5-12.2h110.2h110.2c11.5,0,21.9,4.7,29.5,12.2s12.2,18,12.2,29.5s-4.7,21.9-12.2,29.5
				C599.3,903.7,588.9,908.4,577.4,908.4z M357,852.6c-3.9,0-7.4,1.6-9.9,4.1s-4.1,6-4.1,9.9c0,3.9,1.6,7.4,4.1,9.9
				c2.5,2.5,6,4.1,9.9,4.1h110.2h110.2c3.9,0,7.4-1.6,9.9-4.1c2.5-2.5,4.1-6,4.1-9.9c0-3.9-1.6-7.4-4.1-9.9s-6-4.1-9.9-4.1H467.2
				H357z"/>
		</g>
		<g>
			<path fill="#B3B8BD" d="M579.6,950.3H467.2H354.9c-7.1,0-13.5-2.9-18.2-7.5s-7.5-11.1-7.5-18.2v-2.1v-2.1
				c0-7.1,2.9-13.5,7.5-18.2s11.1-7.5,18.2-7.5h112.3h112.3c7.1,0,13.5,2.9,18.2,7.5s7.5,11.1,7.5,18.2v2.1v2.1
				c0,7.1-2.9,13.5-7.5,18.2C593.1,947.4,586.7,950.3,579.6,950.3z"/>
			<path fill="#2E4C59" d="M577.4,964.1H467.2H357c-11.5,0-21.9-4.7-29.5-12.2s-12.2-18-12.2-29.5s4.7-21.9,12.2-29.5
				s18-12.2,29.5-12.2h110.2h110.2c11.5,0,21.9,4.7,29.5,12.2s12.2,18,12.2,29.5s-4.7,21.9-12.2,29.5
				C599.3,959.5,588.9,964.1,577.4,964.1z M357,908.4c-3.9,0-7.4,1.6-9.9,4.1s-4.1,6-4.1,9.9s1.6,7.4,4.1,9.9s6,4.1,9.9,4.1h110.2
				h110.2c3.9,0,7.4-1.6,9.9-4.1s4.1-6,4.1-9.9s-1.6-7.4-4.1-9.9s-6-4.1-9.9-4.1H467.2H357z"/>
		</g>
		<g>
			<path fill="#B3B8BD" d="M579.6,1006H467.2H354.9c-7.1,0-13.5-2.9-18.2-7.5s-7.5-11.1-7.5-18.2v-2.1V976c0-7.1,2.9-13.5,7.5-18.2
				s11.1-7.5,18.2-7.5h112.3h112.3c7.1,0,13.5,2.9,18.2,7.5s7.5,11.1,7.5,18.2v2.1v2.1c0,7.1-2.9,13.5-7.5,18.2
				C593.1,1003.2,586.7,1006,579.6,1006z"/>
			<path fill="#2E4C59" d="M577.4,1019.9H467.2H357c-11.5,0-21.9-4.7-29.5-12.2c-7.6-7.6-12.2-18-12.2-29.5
				c0-11.5,4.7-21.9,12.2-29.5s18-12.2,29.5-12.2h110.2h110.2c11.5,0,21.9,4.7,29.5,12.2s12.2,18,12.2,29.5
				c0,11.5-4.7,21.9-12.2,29.5C599.3,1015.2,588.9,1019.9,577.4,1019.9z M357,964.1c-3.9,0-7.4,1.6-9.9,4.1s-4.1,6-4.1,9.9
				s1.6,7.4,4.1,9.9s6,4.1,9.9,4.1h110.2h110.2c3.9,0,7.4-1.6,9.9-4.1s4.1-6,4.1-9.9c0-3.9-1.6-7.4-4.1-9.9s-6-4.1-9.9-4.1H467.2
				H357z"/>
		</g>
		<path fill="#FFFFFF" d="M675.4,466c-16.5,19-43.4,25.9-73.7,21.5c-30.3-4.4-63.9-19.9-93.6-45.6c-29.7-25.7-50-56.7-58.6-86
			c-8.7-29.3-5.8-57,10.7-76s43.4-25.9,73.7-21.5c30.3,4.4,63.9,19.9,93.6,45.6c29.7,25.7,50,56.7,58.6,86
			C694.8,419.3,691.9,447,675.4,466z"/>
		<path fill="#2E4C59" d="M467.2,852.6c-3.8,0-7.3-1.5-9.8-4.1s-4.1-6-4.1-9.8V722.3V605.8c0-3.8,1.5-7.3,4.1-9.8s6-4.1,9.8-4.1
			c3.8,0,7.3,1.5,9.8,4.1s4.1,6,4.1,9.8v116.5v116.5c0,3.8-1.5,7.3-4.1,9.8S471,852.6,467.2,852.6z"/>
		<path fill="#2E4C59" d="M463.2,619.7c-24.3,0-44.2-10.8-58.1-21.9c-13.9-11.1-21.9-22.3-22.5-23.3c-2.2-3.1-2.9-6.9-2.3-10.4
			c0.6-3.5,2.6-6.7,5.7-8.9c3.1-2.2,6.9-2.9,10.4-2.3c3.5,0.6,6.7,2.6,8.9,5.7c0.1,0.1,6.1,8.5,16.3,16.7s24.6,16.5,41.7,16.5
			c17,0,31.3-8.2,41.3-16.5c10.1-8.3,15.9-16.6,16-16.7c2.2-3.1,5.4-5.1,8.9-5.7s7.2,0,10.3,2.2c3.1,2.2,5.1,5.4,5.8,8.9
			s0,7.2-2.2,10.3c-0.6,0.9-8.5,12.2-22.3,23.3C507.3,608.8,487.6,619.7,463.2,619.7z"/>
	</g>
	<g>
		<g>
			<g>
				<path fill="#2E4C59" d="M797.3,811.1c-1.8,0-3.5-0.3-5.2-1c-1.7-0.7-3.2-1.7-4.6-3l-25.7-25.7L736,755.6
					c-2.7-2.7-4.1-6.2-4.1-9.8c0-3.5,1.4-7.1,4.1-9.8c2.7-2.7,6.2-4.1,9.8-4.1s7.1,1.4,9.8,4.1l25.7,25.7l25.7,25.7
					c2.7,2.7,4.1,6.2,4.1,9.8s-1.4,7.1-4.1,9.8c-1.4,1.4-2.9,2.4-4.6,3S799,811.1,797.3,811.1z"/>
				<path fill="#2E4C59" d="M199.7,213.6c-1.8,0-3.5-0.3-5.2-1c-1.7-0.7-3.2-1.7-4.6-3l-25.7-25.7L138.5,158
					c-2.7-2.7-4.1-6.2-4.1-9.8s1.4-7.1,4.1-9.8s6.2-4.1,9.8-4.1s7.1,1.4,9.8,4.1l25.7,25.7l25.7,25.7c2.7,2.7,4.1,6.2,4.1,9.8
					s-1.4,7.1-4.1,9.8c-1.4,1.4-2.9,2.4-4.6,3C203.3,213.2,201.5,213.6,199.7,213.6z"/>
			</g>
			<g>
				<path fill="#2E4C59" d="M931.7,486.6h-36.4h-36.4c-3.8,0-7.3-1.5-9.8-4.1s-4.1-6-4.1-9.8c0-3.8,1.5-7.3,4.1-9.8s6-4.1,9.8-4.1
					h36.4h36.4c3.8,0,7.3,1.5,9.8,4.1s4.1,6,4.1,9.8c0,3.8-1.5,7.3-4.1,9.8S935.5,486.6,931.7,486.6z"/>
				<path fill="#2E4C59" d="M86.6,486.6H50.2H13.8c-3.8,0-7.3-1.5-9.8-4.1s-4.1-6-4.1-9.8c0-3.8,1.5-7.3,4.1-9.8s6-4.1,9.8-4.1h36.4
					h36.4c3.8,0,7.3,1.5,9.8,4.1s4.1,6,4.1,9.8c0,3.8-1.5,7.3-4.1,9.8S90.4,486.6,86.6,486.6z"/>
			</g>
			<g>
				<path fill="#2E4C59" d="M745.8,213.6c-1.8,0-3.5-0.3-5.2-1c-1.7-0.7-3.2-1.7-4.6-3c-2.7-2.7-4.1-6.2-4.1-9.8s1.4-7.1,4.1-9.8
					l25.7-25.7l25.7-25.7c2.7-2.7,6.2-4.1,9.8-4.1s7.1,1.4,9.8,4.1s4.1,6.2,4.1,9.8s-1.4,7.1-4.1,9.8l-25.7,25.7l-25.7,25.7
					c-1.4,1.4-2.9,2.4-4.6,3C749.3,213.2,747.6,213.6,745.8,213.6z"/>
				<path fill="#2E4C59" d="M148.3,811.1c-1.8,0-3.5-0.3-5.2-1s-3.2-1.7-4.6-3c-2.7-2.7-4.1-6.2-4.1-9.8s1.4-7.1,4.1-9.8l25.7-25.7
					l25.7-25.7c2.7-2.7,6.2-4.1,9.8-4.1s7.1,1.4,9.8,4.1c2.7,2.7,4.1,6.2,4.1,9.8s-1.4,7.1-4.1,9.8l-25.7,25.7L158,807
					c-1.4,1.4-2.9,2.4-4.6,3S150,811.1,148.3,811.1z"/>
			</g>
			<g>
				<path fill="#2E4C59" d="M472.8,100.5c-3.8,0-7.3-1.5-9.8-4.1s-4.1-6-4.1-9.8V50.2V13.8c0-3.8,1.5-7.3,4.1-9.8s6-4.1,9.8-4.1
					s7.3,1.5,9.8,4.1s4.1,6,4.1,9.8v36.4v36.4c0,3.8-1.5,7.3-4.1,9.8S476.6,100.5,472.8,100.5z"/>
			</g>
		</g>
		<g>
			<g>
				<path fill="#2E4C59" d="M335.6,130.7c-2.8,0-5.5-0.8-7.8-2.4c-2.3-1.5-4.1-3.7-5.2-6.5l-7-18l-7-18c-1.4-3.6-1.2-7.4,0.3-10.6
					c1.4-3.2,4.1-5.9,7.7-7.3c3.6-1.4,7.4-1.2,10.6,0.3c3.2,1.4,5.9,4.1,7.3,7.7l6.9,18l6.9,18c1.4,3.6,1.2,7.4-0.3,10.6
					c-1.4,3.2-4.1,5.9-7.7,7.3c-0.8,0.3-1.7,0.6-2.5,0.7C337.2,130.7,336.4,130.7,335.6,130.7z"/>
			</g>
			<g>
				<path fill="#2E4C59" d="M856.7,656.9c-0.9,0-1.9-0.1-2.8-0.3s-1.9-0.5-2.8-0.9l-13.6-6l-13.6-6c-3.5-1.5-6-4.4-7.3-7.7
					s-1.3-7.1,0.3-10.6c1.5-3.5,4.4-6,7.7-7.3c3.3-1.3,7.1-1.3,10.6,0.3l13.6,6l13.6,6c3.5,1.5,6,4.4,7.3,7.7
					c1.3,3.3,1.3,7.1-0.3,10.6c-1.1,2.6-3,4.6-5.2,6.1C861.9,656.1,859.3,656.9,856.7,656.9z"/>
				<path fill="#2E4C59" d="M117.6,329.1c-0.9,0-1.9-0.1-2.8-0.3c-0.9-0.2-1.9-0.5-2.8-0.9l-14.4-6.4l-14.4-6.4
					c-3.5-1.5-6-4.4-7.3-7.7s-1.3-7.1,0.3-10.6c1.5-3.5,4.4-6,7.7-7.3s7.1-1.3,10.6,0.3l14.4,6.4l14.4,6.4c3.5,1.5,6,4.4,7.3,7.7
					s1.3,7.1-0.3,10.6c-1.1,2.6-3,4.6-5.2,6.1C122.9,328.3,120.3,329.1,117.6,329.1z"/>
			</g>
			<g>
				<path fill="#2E4C59" d="M833.6,347.5c-2.8,0-5.5-0.8-7.8-2.4c-2.3-1.5-4.1-3.7-5.2-6.5c-1.4-3.6-1.2-7.4,0.3-10.6
					c1.4-3.2,4.1-5.9,7.7-7.3l15.5-6l15.5-6c3.6-1.4,7.4-1.2,10.6,0.3c3.2,1.4,5.9,4.1,7.3,7.7c1.4,3.6,1.2,7.4-0.3,10.6
					s-4.1,5.9-7.7,7.3l-15.5,6l-15.5,6c-0.8,0.3-1.7,0.5-2.5,0.7C835.3,347.4,834.4,347.5,833.6,347.5z"/>
				<path fill="#2E4C59" d="M80.9,637.7c-2.8,0-5.5-0.8-7.8-2.4s-4.1-3.7-5.2-6.5c-1.4-3.6-1.2-7.4,0.3-10.6
					c1.4-3.2,4.1-5.9,7.7-7.3l14.7-5.7l14.7-5.7c3.6-1.4,7.4-1.2,10.6,0.3c3.2,1.4,5.9,4.1,7.3,7.7c1.4,3.6,1.2,7.4-0.3,10.6
					s-4.1,5.9-7.7,7.3l-14.7,5.7l-14.7,5.7c-0.8,0.3-1.6,0.5-2.5,0.7C82.5,637.6,81.7,637.7,80.9,637.7z"/>
			</g>
			<g>
				<path fill="#2E4C59" d="M632.1,127.3c-0.9,0-1.9-0.1-2.8-0.3c-0.9-0.2-1.9-0.5-2.8-0.9c-3.5-1.5-6-4.4-7.3-7.7
					c-1.3-3.3-1.3-7.1,0.3-10.6l5.5-12.3l5.5-12.3c1.6-3.5,4.4-6,7.7-7.3c3.3-1.3,7.1-1.3,10.6,0.3c3.5,1.5,6,4.4,7.3,7.7
					c1.3,3.3,1.3,7.1-0.3,10.6l-5.5,12.3l-5.5,12.3c-1.1,2.6-3,4.6-5.2,6.1S634.8,127.3,632.1,127.3z"/>
			</g>
		</g>
	</g>
</g>
</svg>
