<svg class="img-fluid" id="outputsvg" xmlns="http://www.w3.org/2000/svg" style="transform: matrix(1, 0, 0, 1, 0, 0); transform-origin: 50% 50% 0px; cursor: move; max-height: none; transition: transform 200ms ease-in-out 0s;" width="2000" height="2000" viewBox="0 0 20000 20000"><g id="l6pMXRsfSu0ka1ULz1YWpmm" fill="rgb(62,67,71)" style="transform: none;"><g style="transform: none;"><path id="pOOGvnHuY" d="M9750 17035 c0 -905 0 -905 250 -905 250 0 250 0 250 905 0 905 0 905 -250 905 -250 0 -250 0 -250 -905z"></path><path id="pUJ53CUkH" d="M7113 17194 c-183 -106 -183 -106 -183 -143 0 -30 40 -107 213 -406 208 -360 214 -370 246 -373 27 -3 69 17 223 105 189 108 189 108 186 143 -2 24 -72 155 -218 407 -215 373 -215 373 -250 373 -26 0 -81 -27 -217 -106z"></path><path id="psgqeFImF" d="M12623 17227 c-11 -18 -108 -186 -216 -374 -229 -395 -227 -391 -144 -437 28 -16 112 -65 186 -108 91 -53 144 -78 166 -78 31 0 35 6 248 376 164 284 217 384 217 409 0 33 -4 35 -183 139 -211 122 -241 130 -274 73z"></path><path id="pvYZb1mjZ" d="M11925 14424 c-885 -735 -1619 -1342 -1631 -1350 -17 -12 -31 -12 -98 1 -90 17 -286 20 -372 4 -345 -61 -623 -321 -704 -659 -28 -119 -28 -354 0 -463 42 -166 98 -270 209 -389 124 -132 260 -214 429 -260 107 -29 343 -31 456 -5 180 43 294 106 427 237 113 112 174 208 221 350 29 88 32 108 36 265 3 129 0 186 -11 235 -15 65 -15 65 56 150 40 47 654 775 1364 1618 1166 1383 1293 1537 1293 1568 0 32 -2 34 -32 33 -29 0 -254 -184 -1643 -1335z"></path><path id="p11PE9xv1F" d="M14443 15072 c-373 -217 -373 -217 -372 -257 0 -32 20 -74 103 -215 102 -175 102 -175 142 -178 35 -2 77 19 409 211 366 212 370 215 372 248 2 27 -19 71 -105 219 -106 181 -109 185 -143 187 -28 1 -99 -36 -406 -215z"></path><path id="p1FTp8jSSP" d="M5054 15183 c-32 -54 -79 -135 -106 -181 -35 -60 -48 -93 -48 -120 1 -37 1 -37 370 -249 310 -179 375 -213 409 -213 39 0 39 0 146 185 84 147 106 192 103 217 -3 31 -17 40 -371 245 -454 262 -422 255 -503 116z"></path><path id="pV46yYXfD" d="M4250 12190 c0 -250 0 -250 905 -250 905 0 905 0 905 250 0 250 0 250 -905 250 -905 0 -905 0 -905 -250z"></path><path id="plKDVmHKy" d="M13940 12190 c0 -250 0 -250 905 -250 905 0 905 0 905 250 0 250 0 250 -905 250 -905 0 -905 0 -905 -250z"></path><path id="p1HUBEppO5" d="M5258 9767 c-367 -212 -367 -212 -368 -249 0 -29 23 -76 107 -222 101 -175 109 -186 136 -186 20 0 151 70 408 218 376 216 378 217 379 250 0 24 -29 83 -106 217 -106 185 -106 185 -148 184 -35 0 -97 -33 -408 -212z"></path><path id="p17sGi31fo" d="M14227 9923 c-132 -221 -187 -324 -187 -351 0 -28 17 -39 376 -246 327 -189 380 -217 412 -214 35 3 37 6 139 181 81 141 103 187 103 216 0 38 0 38 -375 255 -256 147 -384 216 -404 216 -25 0 -35 -8 -64 -57z"></path><path id="p8uLmsQcL" d="M9756 8234 c-3 -9 -6 -416 -6 -905 0 -889 0 -889 250 -889 250 0 250 0 250 905 0 905 0 905 -244 905 -213 0 -245 -2 -250 -16z"></path><path id="p10urpjKw8" d="M7333 8108 c-6 -7 -105 -178 -222 -379 -143 -249 -211 -376 -211 -396 0 -27 11 -36 185 -136 147 -85 193 -107 223 -107 37 1 37 1 250 371 172 301 212 377 212 408 0 37 0 37 -185 144 -183 106 -230 123 -252 95z"></path><path id="pXNaA3r3" d="M12390 8000 c-171 -100 -185 -110 -188 -138 -3 -25 39 -104 214 -407 217 -375 217 -375 257 -375 32 0 74 20 218 103 178 102 178 102 179 141 0 32 -35 98 -216 412 -213 369 -216 374 -248 373 -20 0 -93 -37 -216 -109z"></path></g></g><g id="l1oZDlMGUSc6nzArkKnNyXT" fill="rgb(78,92,102)" style="transform: none;"><g style="transform: none;"><path id="p17VicQsFP" d="M9750 8210 c0 -46 24 -56 34 -15 4 14 13 25 21 25 8 0 15 7 15 15 0 10 -11 15 -35 15 -34 0 -35 -1 -35 -40z"></path><path id="pTutX3Sqh" d="M15829 7053 c-195 -222 -515 -542 -713 -714 -72 -62 -96 -89 -96 -107 0 -19 3 -22 13 -14 10 9 60 -36 216 -192 129 -129 201 -208 196 -216 -5 -8 1 -11 19 -8 38 5 936 903 936 936 0 19 -3 22 -13 14 -10 -9 -60 36 -216 192 -119 119 -201 208 -197 215 5 7 -2 11 -17 11 -18 0 -49 -29 -128 -117z"></path><path id="p16hmObawg" d="M4034 7152 c3 -5 -87 -100 -199 -212 -176 -176 -206 -202 -219 -191 -14 12 -16 9 -16 -21 0 -31 32 -66 454 -486 402 -401 457 -452 484 -452 25 0 30 3 25 16 -7 20 385 417 405 409 6 -2 12 2 12 10 0 18 -40 65 -55 65 -6 0 -26 18 -44 40 -17 22 -38 40 -44 40 -7 0 -30 20 -50 45 -21 25 -42 45 -46 45 -11 0 -461 450 -461 461 0 4 -20 25 -45 46 -25 20 -45 43 -45 49 0 7 -18 28 -40 47 -22 19 -40 39 -40 45 0 14 -49 52 -67 52 -8 0 -12 -4 -9 -8z"></path><path id="pR9gjWlwK" d="M9520 4398 c0 -5 5 -8 10 -8 6 0 10 -124 10 -351 0 -345 0 -351 -20 -356 -18 -5 -21 -12 -18 -52 3 -46 3 -46 468 -49 256 -1 480 0 498 3 30 6 32 8 32 49 0 35 -4 45 -20 49 -20 5 -20 14 -20 356 0 227 4 351 10 351 6 0 10 4 10 8 0 4 -216 7 -480 7 -264 0 -480 -3 -480 -7z"></path></g></g><g id="l1QgSmrTM9ELNC2jrjZhFsN" fill="rgb(100,122,135)" style="transform: none;"><g style="transform: none;"><path id="phCtxLU3B" d="M9745 19989 c-2394 -70 -4634 -1257 -6062 -3215 -1414 -1938 -1851 -4436 -1183 -6759 286 -992 800 -1971 1449 -2759 49 -60 88 -114 85 -118 -3 -5 6 -18 20 -29 15 -11 24 -24 22 -28 -3 -4 15 -24 40 -45 24 -20 42 -41 39 -45 -2 -5 18 -27 45 -50 27 -23 49 -45 48 -49 -2 -9 451 -462 463 -462 4 0 25 -20 46 -45 20 -25 43 -45 50 -45 6 0 27 -18 44 -40 18 -22 38 -40 46 -40 7 0 18 -9 25 -20 7 -11 20 -20 28 -20 8 0 62 -39 120 -86 854 -694 1850 -1204 2905 -1488 404 -109 867 -192 1285 -230 91 -8 188 -17 215 -20 28 -2 76 -9 109 -15 74 -12 728 -12 821 0 39 6 120 14 180 19 1066 91 1989 347 2905 804 522 261 922 519 1434 925 256 202 439 370 715 656 432 447 863 1031 1183 1605 1035 1854 1266 4065 637 6105 -399 1297 -1141 2476 -2144 3409 -719 669 -1543 1188 -2457 1550 -805 318 -1726 510 -2543 531 -110 3 -229 7 -265 8 -36 2 -173 0 -305 -4z m555 -1059 c1123 -56 2189 -377 3142 -947 1799 -1075 3010 -2932 3257 -4993 38 -313 46 -452 46 -805 -1 -340 -9 -496 -41 -765 -96 -803 -316 -1538 -674 -2244 -453 -896 -1072 -1656 -1855 -2278 -916 -727 -2005 -1201 -3175 -1382 -398 -62 -682 -80 -1115 -73 -601 11 -1096 82 -1676 243 -1547 428 -2909 1412 -3810 2754 -641 954 -1017 2019 -1126 3190 -21 233 -24 822 -5 1050 78 919 304 1726 710 2536 584 1167 1526 2160 2677 2823 879 507 1882 814 2880 881 317 21 496 23 765 10z"></path><path id="pApYGIu8V" d="M2804 6548 c-368 -370 -509 -518 -532 -559 -82 -146 -82 -332 0 -478 23 -41 155 -180 487 -514 251 -252 482 -478 514 -502 84 -64 153 -87 272 -93 113 -5 192 15 275 68 25 16 270 254 545 529 500 501 500 501 345 659 -85 88 -160 160 -166 161 -6 0 -285 278 -621 616 -336 338 -612 615 -615 615 -2 0 -229 -226 -504 -502z"></path><path id="pEUDcEheL" d="M16200 6571 c-267 -263 -615 -612 -774 -775 -289 -297 -289 -297 205 -793 272 -272 517 -510 545 -528 89 -58 163 -78 279 -73 119 6 188 29 272 93 32 24 263 250 514 502 332 334 464 473 487 514 82 146 82 332 0 478 -23 41 -164 189 -532 559 -275 276 -503 502 -506 502 -3 0 -223 -215 -490 -479z"></path><path id="pXjxYCPvG" d="M9385 3640 c-27 -10 -76 -19 -107 -19 -54 -1 -58 -3 -58 -25 0 -13 -7 -26 -15 -30 -13 -5 -15 -48 -15 -307 0 -264 2 -300 15 -289 13 10 15 -61 17 -582 3 -590 3 -593 25 -634 83 -155 376 -254 753 -254 378 0 670 98 753 254 22 41 22 44 25 634 2 521 4 592 17 582 13 -11 15 25 15 289 0 259 -2 302 -15 307 -8 4 -15 17 -15 30 0 22 -4 24 -53 24 -30 0 -80 9 -112 20 -32 11 -78 20 -102 20 -36 0 -43 -3 -43 -20 0 -14 -9 -21 -32 -25 -18 -3 -229 -4 -468 -3 -435 3 -435 3 -438 26 -3 19 -9 22 -50 21 -26 0 -69 -9 -97 -19z"></path></g></g><g id="l455RrvmtyjYPKoHD5CxcpX" fill="rgb(237,76,92)" style="transform: none;"><g style="transform: none;"><path id="ppOucDnA9" d="M13970 16186 c-239 -238 -462 -466 -495 -507 -62 -77 -58 -77 39 6 33 27 56 43 51 35 -8 -12 -2525 -3003 -2687 -3191 -48 -57 -48 -57 -27 -145 18 -76 20 -110 16 -229 -4 -122 -8 -152 -35 -235 -47 -142 -108 -238 -221 -350 -53 -52 -122 -110 -153 -128 -121 -71 -259 -114 -410 -128 -78 -7 -78 -7 -78 -1550 0 -1544 0 -1544 125 -1544 125 0 125 0 125 -875 0 -875 0 -875 -125 -875 -125 0 -125 0 -125 -282 0 -281 0 -281 237 -275 2052 53 3948 1128 5082 2881 387 599 683 1302 836 1987 226 1009 202 2115 -66 3094 -265 971 -759 1858 -1447 2597 -126 136 -140 147 -172 147 -33 0 -64 -29 -470 -433z m995 -1122 c57 -98 100 -182 97 -186 -18 -18 -738 -428 -747 -425 -11 4 -213 346 -214 362 -1 14 742 444 752 435 4 -4 55 -87 112 -186z m755 -2874 c0 -220 0 -220 -875 -220 -875 0 -875 0 -875 220 0 220 0 220 875 220 875 0 875 0 875 -220z m-1032 -2470 c193 -111 352 -206 352 -211 0 -10 -189 -340 -205 -357 -10 -11 -81 26 -389 204 -376 217 -376 217 -357 248 22 37 67 115 145 249 55 95 58 98 79 84 12 -7 181 -105 375 -217z m-1859 -2021 c116 -202 211 -370 211 -375 -1 -12 -358 -216 -370 -212 -9 3 -429 721 -433 740 -3 12 366 227 374 219 4 -3 102 -171 218 -372z"></path></g></g><g id="l1HXAWxm9ubCPJmbDi8J2d8" fill="rgb(210,210,212)" style="transform: none;"><g style="transform: none;"><path id="p126W5rovC" d="M9725 18963 c-999 -47 -1852 -265 -2720 -693 -779 -384 -1449 -890 -2037 -1539 -633 -698 -1101 -1502 -1403 -2405 -173 -518 -277 -1036 -327 -1616 -19 -231 -17 -876 5 -1110 64 -689 206 -1286 454 -1915 620 -1571 1841 -2879 3367 -3610 737 -353 1454 -552 2311 -641 206 -21 812 -30 1041 -15 1857 121 3537 961 4746 2371 651 760 1151 1717 1398 2675 155 601 215 1077 215 1720 0 472 -23 759 -96 1175 -292 1684 -1218 3196 -2599 4244 -790 600 -1760 1037 -2730 1230 -526 105 -1130 153 -1625 129z m540 -573 c1257 -67 2425 -484 3415 -1220 329 -245 690 -569 690 -619 0 -25 0 -25 34 8 35 34 35 34 134 -70 571 -599 1014 -1305 1312 -2089 385 -1016 495 -2162 310 -3257 -262 -1557 -1124 -2970 -2400 -3937 -931 -706 -2014 -1128 -3187 -1241 -206 -20 -573 -32 -573 -18 0 6 -80 12 -207 16 -1146 34 -2284 403 -3257 1056 -1035 694 -1851 1700 -2318 2861 -186 461 -318 959 -387 1451 -43 312 -55 482 -55 834 -1 344 7 476 44 775 242 1920 1372 3624 3055 4610 180 105 551 290 730 364 765 314 1526 471 2350 484 66 1 206 -3 310 -8z"></path><path id="p1EWB7xBFE" d="M9435 3655 c-70 -23 -70 -23 13 -24 81 -1 82 -1 82 24 0 30 -6 30 -95 0z"></path><path id="petbIA6kO" d="M10470 3656 c0 -26 0 -26 83 -25 82 0 82 0 31 19 -28 10 -65 21 -82 25 -29 6 -32 5 -32 -19z"></path><path id="pWwTppgMR" d="M9119 3522 c-229 -129 -390 -260 -547 -447 -328 -390 -485 -898 -431 -1393 71 -662 493 -1241 1101 -1514 417 -187 902 -212 1338 -68 622 204 1102 733 1244 1371 160 723 -118 1461 -720 1909 -72 54 -263 170 -306 186 -17 6 -18 -12 -18 -289 0 -295 0 -295 55 -337 83 -64 226 -219 285 -307 154 -233 224 -469 224 -758 0 -239 -38 -403 -140 -610 -155 -315 -439 -560 -778 -670 -161 -52 -221 -60 -436 -60 -177 1 -205 3 -300 27 -261 66 -449 168 -631 345 -203 197 -329 431 -385 718 -24 123 -24 376 0 499 36 187 105 357 206 509 59 88 202 243 285 307 55 42 55 42 55 336 0 162 -3 294 -7 294 -5 0 -47 -22 -94 -48z"></path></g></g><g id="l1uJshFCibAmgu314gJ10jb" fill="rgb(255,255,255)" style="transform: none;"><g style="transform: none;"><path id="pUWflAw8P" d="M9745 18423 c-782 -37 -1459 -187 -2170 -479 -179 -74 -550 -259 -730 -364 -1683 -986 -2813 -2690 -3055 -4610 -38 -304 -45 -429 -44 -805 0 -384 10 -543 55 -864 311 -2231 1824 -4135 3938 -4955 660 -257 1381 -400 2061 -411 135 -2 235 -2 223 1 -23 5 -23 5 -23 270 0 264 0 264 -110 264 -110 0 -110 0 -110 875 0 875 0 875 110 875 110 0 110 0 110 1544 0 1544 0 1544 -67 1551 -230 23 -413 113 -569 278 -162 172 -234 354 -234 591 0 154 24 256 89 391 172 352 566 547 948 469 43 -9 89 -18 103 -21 21 -4 269 198 1640 1332 1615 1337 1615 1337 2066 1781 451 444 451 444 355 537 -840 816 -1920 1387 -3071 1626 -480 99 -1055 146 -1515 124z m475 -1388 c0 -875 0 -875 -220 -875 -220 0 -220 0 -220 875 0 875 0 875 220 875 220 0 220 0 220 -875z m-2693 -98 c105 -182 203 -352 217 -377 25 -45 25 -45 -162 -153 -172 -99 -188 -106 -200 -90 -29 40 -414 715 -416 729 -1 9 66 54 179 119 99 58 182 105 185 105 3 0 91 -150 197 -333z m5340 187 c101 -58 183 -107 183 -109 0 -4 -429 -747 -434 -753 -2 -2 -21 7 -43 21 -21 13 -103 61 -183 107 -80 45 -147 84 -149 86 -2 2 86 157 194 345 246 426 236 409 243 409 3 0 88 -48 189 -106z m-7346 -2084 c199 -115 366 -213 370 -217 11 -12 -197 -368 -215 -368 -18 0 -745 417 -746 427 0 4 22 45 48 90 27 46 74 127 106 181 31 53 61 97 66 97 4 0 172 -94 371 -210z m509 -2850 c0 -220 0 -220 -875 -220 -875 0 -875 0 -875 220 0 220 0 220 875 220 875 0 875 0 875 -220z m-245 -2426 c58 -102 105 -187 103 -188 -2 -1 -158 -92 -348 -201 -190 -109 -359 -207 -376 -217 -30 -18 -30 -18 -135 164 -57 99 -105 186 -106 192 -3 11 720 434 743 435 7 1 60 -83 119 -185z m1793 -1794 c89 -52 161 -99 160 -106 -5 -22 -423 -743 -430 -744 -13 0 -377 213 -374 219 338 585 421 728 429 739 8 10 14 10 31 -1 12 -8 94 -56 184 -107z"></path></g></g></svg>